<svg xmlns="http://www.w3.org/2000/svg" width="999.39" height="999.39" viewBox="0 0 999.39 999.39">
  <defs>
    <style>
      .cls-1 {
        fill: #f8d7c6;
      }

      .cls-2 {
        fill: #012632;
      }

      .cls-3 {
        fill: #323221;
      }

      .cls-4 {
        fill: #fff;
      }

      .cls-5 {
        fill: #df9893;
      }

      .cls-6 {
        fill: #004242;
      }

      .cls-7 {
        fill: #214295;
      }

      .cls-8 {
        fill: #b67452;
      }

      .cls-9 {
        fill: #606060;
      }

      .cls-10 {
        fill: #a45;
      }

      .cls-11 {
        fill: #e8a50f;
      }
    </style>
  </defs>
  <g id="Background">
    <rect class="cls-1" width="999.39" height="999.39"/>
  </g>
  <g id="Lines">
    <g>
      <polygon class="cls-2" points="971.28 769.98 975.3 779.7 965.6 783.74 961.56 774.02 971.28 769.98"/>
      <path class="cls-3" d="M863,508.8,971.28,770l-9.72,4L848.48,501.87l-3.42-8.23h0a1,1,0,0,1-.11-.23,26.2,26.2,0,1,1,50-5.74,7.67,7.67,0,0,1-5.38,3,7.8,7.8,0,0,1-6.78-3,14.92,14.92,0,1,0-28.16,1.74,1,1,0,0,0,.12.23,13.11,13.11,0,0,0,1.17,2.19Z"/>
      <path class="cls-4" d="M848.09,502l2.46,282h-16.3l1.36-148.75-66,4.61-1.22,47.34c-3.95,0-8.13-.16-12.42-.37l.56-47c13.08-3.95,25.19-9.4,35.66-16.81l43.41-3.85L843,502Z"/>
      <path class="cls-2" d="M835.61,490.63c1.69,34.92-.26,72.75-11.36,90.19a263.93,263.93,0,0,0-77.69-36.46c14.38-1.17,53.91,13.7,67.15,13.38C824.51,557.48,832.06,515.7,835.61,490.63Z"/>
      <path class="cls-5" d="M556.77,517.09l-2-9.08c4-9.79,17.78-23.63,27.33-25.84,15-3.47,41.07-8.1,52.06-19.09s26-25.95,23.73-43.65-5.78-30.41-12.72-35.62c-2-11.11-3.36-15.26-12.75-20.94,4.8-8.53,2.84-14.2-.65-17.49,2.46-4.38,4.64-8.08,3.89-11.51,8.71-7.54,34.22-27,63.07-25.19C802.91,311.89,819,400.9,826.08,419.93c3.38,9.1,8,38.67,9.53,70.7-3.55,25.07-11.1,66.85-21.9,67.11-13.24.32-52.77-14.55-67.15-13.38h0c-53.76-15.33-96-9.77-96-9.77l-.21.11c-1.24-7-2.27-16.81-2.76-21.92,9.41-.67,17.54-1.27,23.05-1.69,16.13-1.2,38.14-35.56,54.91-61.83a256.36,256.36,0,0,0,14.71-22.18c-4,5.43-9.07,13.35-14.71,22.18-45.68,61.34-91.5,54.37-150.67,68.11-6.22.3-11.33.49-14.74.51a10.38,10.38,0,0,1-3.23-.42Z"/>
      <path class="cls-6" d="M817.74,686.26l-3.15,95.59h-7c-15.73-3.58-21.87-8-21.51-13.32,7.07-1.41,14.62-3.34,14.62-3.34V686.26Z"/>
      <path class="cls-7" d="M650.29,534.7l.21-.11s42.29-5.56,96,9.77h0a263.93,263.93,0,0,1,77.69,36.46,85.17,85.17,0,0,1-32,42.26c-10.47,7.41-22.58,12.86-35.66,16.81-41,12.42-91.59,10.1-131.09,6.62,25.14,5.51,50.74,19.51,77.28,30.63,15,6.31,35.16,8.88,53.25,9.77,4.29.21,8.47.33,12.42.37,18.41.22,32.33-1,32.33-1v18.19q-17.12,3.13-32.91,5.51-6.15.93-12.12,1.76c-173.49,24-225.54-18.33-242.73-40.2-18.59-23.64,6.77-72.33,22-77.2C549.75,589.58,645.23,537.47,650.29,534.7Z"/>
      <path class="cls-2" d="M807.62,781.85H777.18c-8.41,0-6.79-11.33.34-12a85.87,85.87,0,0,0,8.59-1.37C785.75,773.89,791.89,778.27,807.62,781.85Z"/>
      <path class="cls-4" d="M767.82,710l-1.9,74.12H754.85l.85-72.36Q761.67,710.9,767.82,710Z"/>
      <path class="cls-2" d="M647.53,512.78c-22.79,1.61-53.19,3.66-72.71,4.59,59.17-13.74,105-6.77,150.67-68.11-16.77,26.27-38.78,60.63-54.91,61.83C665.07,511.51,656.94,512.11,647.53,512.78Z"/>
      <path class="cls-4" d="M635.62,333.87c.75,3.43-1.43,7.13-3.89,11.51,3.49,3.29,5.45,9,.65,17.49,9.39,5.68,10.7,9.83,12.75,20.94,6.94,5.21,10.41,17.94,12.72,35.62s-12.72,32.66-23.73,43.65-37,15.62-52.06,19.09c-9.55,2.21-23.31,16.05-27.33,25.84-1.7,4.16-1.67,7.58,1.2,9.07-8.49-.23-21.65-2.76-26.24-15.68-.16-.41-.29-.83-.42-1.24-3.23-10.15-.16-15.84,4.37-19.43,3.77-3,8.55-4.5,11.56-5.92a7.35,7.35,0,0,0,1.8-1.14c3.65-3.21-.87-8,6.58-16.19,8.4-9.18,22-2,28.76-2.22S581,449,586.71,444.8s10.27.88,13.55-2.39-5-9.4-2.62-14,9.61-2.19,12-5.23-4.37-4.82-5.46-11.35,7.65-5.71,8.74-10.3-6.11-8.74-7-12.45,1.52-3.72,3.93-8.1c.22-3.28-5-4.58-8.08-7.2s1-6.69-.29-12.09q-.06-.29-.15-.57c3.93-.86,9.17-8.1,10.27-10s8.3-2,6.34-7.47-18.57-11.36-15.51-10.71c2.23.48,5.63-3.71,8.92-6.85a17.26,17.26,0,0,1,3.53-2.76c4.15-2.19,6.77,2.83,6.77,2.83s2.84-2.83,10.27,2.71C634.13,330.5,635.26,332.15,635.62,333.87Z"/>
      <path class="cls-4" d="M623.64,518v9.61H323.44v-7.77a53.59,53.59,0,0,0,9.64-1.84H623.64Z"/>
      <path class="cls-8" d="M618,343.64c2,5.46-5.24,5.53-6.34,7.47s-6.34,9.16-10.27,10q.09.28.15.57l-1,0a19.48,19.48,0,1,1,10.87-35.64c-3.29,3.14-6.69,7.33-8.92,6.85C599.39,332.28,616,338.17,618,343.64Z"/>
      <path class="cls-9" d="M565.7,784.08H366.84l23.75-16.56c24.5,5,92.81,12.49,164.5,7.82Z"/>
      <path class="cls-3" d="M556.85,517.46l.1.42H525.28l4-17.72c.13.41.26.83.42,1.24,4.59,12.92,17.75,15.45,26.24,15.68A7.69,7.69,0,0,0,556.85,517.46Z"/>
      <path class="cls-4" d="M481.07,714.38l74,61c-71.69,4.67-140-2.83-164.5-7.82L466,715V546.3a25.58,25.58,0,0,1,15.08-1.12Z"/>
      <path class="cls-3" d="M548.27,455.47a2,2,0,0,1,0,4H543.8l3.2,14.22a7.35,7.35,0,0,1-1.8,1.14c-3,1.42-7.79,2.94-11.56,5.92l4.8-21.28h-4.81a2,2,0,0,1,0-4h14.64Z"/>
      <path class="cls-3" d="M548.33,448.26a7.22,7.22,0,0,1-5.48,7,7,7,0,0,1-1.73.21h-1.79l0-.21a7.22,7.22,0,1,1,9-7Z"/>
      <path class="cls-3" d="M536.81,352.47c2.55,2.78.4,8.92-4.83,13.72s-11.52,6.4-14.07,3.61a3.61,3.61,0,0,1-.52-.73s0,0,0,0c-.11-.32-.24-.63-.37-1a.15.15,0,0,0,0-.07c-.46-2,.22-4.57,1.82-7.22a22.16,22.16,0,0,1,3.94-4.71,21,21,0,0,1,6.18-4,9.25,9.25,0,0,1,6-.72C535.6,351.78,536.23,352.16,536.81,352.47Z"/>
      <path class="cls-3" d="M534.94,351.35a9.25,9.25,0,0,0-6,.72,21,21,0,0,0-6.18,4,22.16,22.16,0,0,0-3.94,4.71c-1.6,2.65-2.28,5.26-1.82,7.22-2.93-7.08-8.39-14.55-9.06-15.46a.5.5,0,0,1-.05-.07l0,0c-3.77-5-5.26-10.42-3.93-14a4.16,4.16,0,0,1-2.2-2.4l-.28,0a15.09,15.09,0,0,1-7.2-1.18h0a25.06,25.06,0,0,1-7.19-4.7c5.33-1.9,6.56-6.34.52-10.05-4.44-2.21-9.61-9.24-3.88-13.12s15.72.17,19.18,8.51l.11-.05c4.51,7.76,4.47,12.87,4.12,15.09h0a4.24,4.24,0,0,1,2.84,4c4,0,9.1,2.6,13.27,7.15l.53.6,0,0A113.37,113.37,0,0,0,534.94,351.35Z"/>
      <path class="cls-10" d="M487,330.2a25.06,25.06,0,0,0,7.19,4.7,30.76,30.76,0,0,1-10.55,8c-6.28,2.7-25-1.41-25-1.41q-1.43,3.13-2.94,6.08c-2.94-2.32-4.88-6-6-8.72,11-18.79,14.11-41,28.73-49.66,15-8.94,32.49,3.65,34.12,7.31s-2,15.71-9.64,19l-.11.05c-3.46-8.34-13.45-12.4-19.18-8.51s-.56,10.91,3.88,13.12C493.58,323.86,492.35,328.3,487,330.2Z"/>
      <path class="cls-3" d="M501.46,439.37c4,17.53-15.23,23-20.39,31.09-3.19,5-3.94,15.54.28,25.46H460.78c-13.67-23.85-3.44-36.12,4.68-41.59a64,64,0,0,0,7.38-3.71,30.57,30.57,0,0,0-7.38,3.71c-7.69,3.28-19.31,6.46-24.2-1.39C449.74,443,450,430.45,466,425.49A51.19,51.19,0,0,1,479.47,423a36.51,36.51,0,0,0,1.6-11.18c3.83,5.32,5.27,9.28,5.76,11.79C493.88,425.25,499.32,430,501.46,439.37Z"/>
      <polygon class="cls-3" points="490.54 495.92 490.54 518 447.55 518 447.55 495.92 460.78 495.92 481.35 495.92 490.54 495.92"/>
      <path class="cls-2" d="M481.07,527.61v17.57A25.58,25.58,0,0,0,466,546.3V527.61Z"/>
      <path class="cls-11" d="M449.74,338.8c1.13,2.76,3.07,6.4,6,8.72-12.68,24.69-29.73,39.11-39.47,45-12.86,7.73-62,24.46-81.31,30.7-13.78-13.5-23.42-39.46-27.72-51,21.35,14.45,36.64,17.39,70.34,10.4,39.15-8.12,59.46-23.15,71.24-42.24Z"/>
      <path class="cls-6" d="M373.42,554.92c38.85,18.15,98.37,84.74,55.49,132.15-95.06,44.37-219.46-3.88-227.7-7.16l1-6.4c0-.11.06-.23.09-.33,23.7-.51,101-23.21,134.82-34C260.76,662,190.85,643,163.81,633.61c19.79-2.46,78.46-16.68,96.51-49.18,20.25-36.43,15.75-59.78,15.75-59.78S343.26,540.81,373.42,554.92Z"/>
      <path class="cls-3" d="M413.87,459.45,427,517.88H405.25l-4.94-22,8.2-36.46h-4.8a2,2,0,1,1,0-4h14.64a2,2,0,0,1,0,4Z"/>
      <path class="cls-3" d="M418.4,448.26a7.2,7.2,0,0,1-7.21,7.21h-1.78l0-.21a7.21,7.21,0,1,1,8.94-7Z"/>
      <polygon class="cls-3" points="400.31 495.91 405.25 517.88 395.36 517.88 400.31 495.91"/>
      <path class="cls-3" d="M390.51,452.39l9.8,43.52-4.95,22h-25.6l14.74-65.49h-5.39a2.23,2.23,0,0,1,0-4.45h16.41a2.23,2.23,0,0,1,0,4.45Z"/>
      <path class="cls-3" d="M395.58,439.86a8.07,8.07,0,0,1-6.14,7.83,7.19,7.19,0,0,1-1.93.25h-2l.06-.25a8.08,8.08,0,1,1,10-7.83Z"/>
      <path class="cls-3" d="M369.48,309.67c18.13,16.13,1.78,37-9.41,39.88s-22.25.1-29.5-2.7a56.52,56.52,0,0,1-8.42-4,45.33,45.33,0,0,1-16.46,12.24,32.47,32.47,0,0,1-9.32,2.38c-54.69,8.47-55.46-20.53-55.46-20.53s-1.57-14.92-10-15.47-78.29,36.91-101.4,28.08S114.11,333,104.76,333s-25.86,20.34-44,17.88-22.56-6.32-26.95-18.43,8.41-17.79-.16-33.28C5.14,247.71,49,241.13,55.4,232.59s-18.95-24.92,10.88-48.71,54.37,16.62,88.55-43.41c22.95-40.33,68.07-23.6,87.1-12.5,17.58,10.24,38.26,37.87,45.7,85.74,5.81,37.37,25.95,22.52,51,33.17C367.18,259,369.48,309.67,369.48,309.67Z"/>
      <path class="cls-11" d="M240.56,484.73a179.31,179.31,0,0,0,16.76,21.14c7.22,15.86,19,54.44-17.76,86.26s-88.28,19.15-94.18,16.79c-4-1.6-21.21-9.13-34.41-18.22-13-25.87-20.32-65.31-7.69-123.42,23-106,99.64-125.79,127.45-129.49.1,13.18,12.85,20.69,12.85,20.69,14.87,8.95,44.33,5.6,55.1,3.24,1,2.06,2,4.23,2.95,6.47,8.76,21.24,12.43,49.72,12.29,69.08,0,8.49-.85,15.22-2.25,18.84,51.75,4.23,43.29,46.55,42,49.16-.83,1.64-7.54,9-20.58,12.73h-9.64v1.84a69.67,69.67,0,0,1-19.64-.9C279.86,514.62,262.24,507.3,240.56,484.73Z"/>
      <path class="cls-10" d="M330.57,346.85c7.25,2.8,18.29,5.56,29.5,2.7-3.16,11.94-14.63,20.78-28.27,20.78A30,30,0,0,1,314,364.58c-.34-5.34,1.61-11.58,4.32-13.94C321.57,347.79,323,349.53,330.57,346.85Z"/>
      <path class="cls-2" d="M335,423.19c-2.45.79-4.44,1.41-5.79,1.83-9.14,2.76-10.74,6.16-15.26,12.25.14-19.36-3.53-47.84-12.29-69.08q2.89,2.12,5.62,4C311.55,383.73,321.19,409.69,335,423.19Z"/>
      <path class="cls-2" d="M322.15,342.85a56.52,56.52,0,0,0,8.42,4c-7.62,2.68-9,.94-12.27,3.79-2.71,2.36-4.66,8.6-4.32,13.94a27.86,27.86,0,0,1-8.29-9.49A45.33,45.33,0,0,0,322.15,342.85Z"/>
      <path class="cls-2" d="M296.37,357.47q1.2,2,2.31,4.25c-10.77,2.36-40.23,5.71-55.1-3.24,0,0-12.75-7.51-12.85-20.69a85.45,85.45,0,0,1,10.18-.85S241.68,365.94,296.37,357.47Z"/>
      <path class="cls-2" d="M276.07,524.65s4.5,23.35-15.75,59.78c-18,32.5-76.72,46.72-96.51,49.18a47.63,47.63,0,0,1-5.48.44,12.84,12.84,0,0,1-3.29-.58c-9.26-2.64-30-14.74-44.07-42.77,13.2,9.09,30.42,16.62,34.41,18.22,5.9,2.36,57.33,15.13,94.18-16.79s25-70.4,17.76-86.26c9.51,10.48,18.14,18.24,18.72,18.75h0Z"/>
      <path class="cls-7" d="M232.12,760.23c5.7,6.56,0,23.85,0,23.85H197c-15.76-6.83-25.89-29.64-28.64-45.7l15.17-73.91,14.06.84a5.27,5.27,0,0,1,4.9,6.08l-.33,2.12-1.43,6.22.44.18-7,45C203.82,736.18,227.59,755,232.12,760.23Z"/>
      <path class="cls-2" d="M197,784.08h-12l-25.89-.84,9.21-44.86C171.15,754.44,181.28,777.25,197,784.08Z"/>
      <polygon class="cls-4" points="154.87 634.05 154.87 784.49 144.33 784.49 146.68 640.43 81.66 637.5 76.99 784.49 62.34 784.49 74.64 524.64 81.12 524.64 81.12 629.82 154.87 634.05"/>
    </g>
  </g>
  <g id="Layer_3" data-name="Layer 3">
    <g id="Layer_4" data-name="Layer 4">
      <g>
        <path class="cls-3" d="M35,959.43a13.15,13.15,0,0,1-1.36,5.45,22.78,22.78,0,0,1-2.71,4.47,8,8,0,0,1-2.14,2.09,2.14,2.14,0,0,1-.79.14,5.28,5.28,0,0,1-2.3-.65A5.29,5.29,0,0,1,24,969.78V953.22a.77.77,0,0,1,.69-.71,10,10,0,0,1,1.15.16,4.75,4.75,0,0,0,1.37-.48,5.11,5.11,0,0,1,2-.51,3.84,3.84,0,0,1,1.93.53,15.15,15.15,0,0,1,1.59,1.24,6.37,6.37,0,0,1,2,2.81A12,12,0,0,1,35,959.43ZM31.19,955a.71.71,0,0,0-.37-.07A5.84,5.84,0,0,0,27.9,956v10.35c1-.59,1.93-2.06,2.67-4.39a18.42,18.42,0,0,0,.94-5.47C31.51,955.61,31.4,955.12,31.19,955Z"/>
        <path class="cls-3" d="M47.38,970.27a.82.82,0,0,1-.28.55.67.67,0,0,1-.57.18c-1.9-.26-3-.62-3.17-1.08a.31.31,0,0,1,0-.18.4.4,0,0,1,.1-.25.86.86,0,0,0,.13-.25.37.37,0,0,1,.09-.19,3.53,3.53,0,0,0,0-.81,4.63,4.63,0,0,0-.82,1.11,5.81,5.81,0,0,1-1,1.38,2.38,2.38,0,0,1-1.67.69,1.73,1.73,0,0,1-1.09-.44c-.16-.14-.46-.44-.89-.9L37,968.73a2.09,2.09,0,0,1-.48-1.22,1.5,1.5,0,0,1,0-.37,7,7,0,0,1,2.72-3.84,26.13,26.13,0,0,1,4.69-2.79c0-.49-.12-.8-.37-.94s-.69.08-1.61.52A9.84,9.84,0,0,0,40,961.21a5.93,5.93,0,0,1-.6.5.92.92,0,0,1-.71.14,4.2,4.2,0,0,1-1.08-.83,3.74,3.74,0,0,1-.9-1,.78.78,0,0,1,.39-1l.92-.27,1.7-.92a8.36,8.36,0,0,1,3-.92,1.83,1.83,0,0,1,1.2.55l1.2,1c.41.34.83.67,1.26,1a1.74,1.74,0,0,1,.73,1.24v8.69A2,2,0,0,1,47.38,970.27Zm-3.68-6.72a5,5,0,0,0-1.93,1.33c-.4.5-.8,1-1.2,1.45a5.94,5.94,0,0,0-.91,1.26,2.76,2.76,0,0,0-.42,1.14c0,.12,0,.18.14.18.32,0,1-.69,2.16-2.08A14.56,14.56,0,0,0,43.7,963.55Z"/>
        <path class="cls-3" d="M60.54,958.33a1.42,1.42,0,0,1,0,.34,1.27,1.27,0,0,1-.34.81,3.22,3.22,0,0,0-.51.74l-4.58,13.17-.09.92c-.06.5-.21.77-.46.83a1,1,0,0,1-.25,0,4.8,4.8,0,0,1-1.54-.34,3.88,3.88,0,0,1-1.28-.66,1,1,0,0,1-.36-.71,1.74,1.74,0,0,1,.33-.84,4.59,4.59,0,0,0,.36-.65l.76-2.6-3.72-9.15a2.8,2.8,0,0,0-.42-.46,1.6,1.6,0,0,1-.39-.92c0-.19.37-.51,1.21-1a4.44,4.44,0,0,1,2-.7.56.56,0,0,1,.3.07,1.3,1.3,0,0,1,.55.78c.07.34.16.66.25,1l2,5.59,2.16-5.75c.09-.31.19-.62.3-.92a.83.83,0,0,1,.48-.58,1.53,1.53,0,0,1,.51-.07,4.62,4.62,0,0,1,1.67.36C60.14,957.87,60.47,958.1,60.54,958.33Z"/>
        <path class="cls-3" d="M76.87,970.08a1.64,1.64,0,0,1-.35,1,1,1,0,0,1-.87.42,5.74,5.74,0,0,1-1.8-1c-.95-.63-1.43-1.07-1.45-1.32a2,2,0,0,1,.07-.42,1.58,1.58,0,0,0,.07-.41v-9.66c0-.35-.34-.6-1-.75s-1.21-.44-1.31-.76a1.26,1.26,0,0,1-.1-.49,2.14,2.14,0,0,1,.51-1.19,12.56,12.56,0,0,0,.83-1.22c.18-.6.37-1.2.55-1.8a1.38,1.38,0,0,1,1.36-1,3.73,3.73,0,0,1,2,.6,1.85,1.85,0,0,1,1.11,1.52v15.25a1.14,1.14,0,0,0,.22.58A1.3,1.3,0,0,1,76.87,970.08Z"/>
        <path class="cls-3" d="M92.46,952.58c.75.17,1.35,1,1.79,2.39a17.58,17.58,0,0,1,.6,5,25,25,0,0,1-.94,6.81c-.91,3.2-2.22,4.8-4,4.8a3.13,3.13,0,0,1-1-.2c-.64-.25-1-.38-1.06-.39-.41-.17-1.09-.42-2-.76q-1.16-.39-1.89-3.27a24.77,24.77,0,0,1-.69-6.14A21.05,21.05,0,0,1,84,955q.78-2.72,2.28-3.24l.18,0a.81.81,0,0,1,.39.14c.16.09.27.12.35.09a4.25,4.25,0,0,1,1.38-.23,7.25,7.25,0,0,1,2,.35C91.68,952.37,92.32,952.55,92.46,952.58Zm-2.9,1.47c-.73,0-1.31.83-1.72,2.49a19.75,19.75,0,0,0-.49,4.67,22.94,22.94,0,0,0,.49,4.55c.32,1.62.63,2.44.94,2.44.6,0,1.09-.94,1.47-2.81a30.51,30.51,0,0,0,.48-5.75,23.09,23.09,0,0,0-.27-3.91Q90.13,954.05,89.56,954.05Z"/>
        <path class="cls-3" d="M109.5,971.51a1,1,0,0,1-.45.68c-.28.23-.51.32-.67.26q-2.31-.83-3.91-4.41a18.31,18.31,0,0,1-1.61-7.69q0-5.49,2.92-8.64a1,1,0,0,1,.71-.37.66.66,0,0,1,.25,0,4.91,4.91,0,0,1,1.36,1,8.88,8.88,0,0,1,1.06,1.08.5.5,0,0,1,.07.28,1.55,1.55,0,0,1-.28.83,15.27,15.27,0,0,0-2.44,8.28,15,15,0,0,0,1,5.54,5,5,0,0,0,1.61,2.55A.57.57,0,0,1,109.5,971.51Z"/>
        <path class="cls-3" d="M119.09,952.58a4.7,4.7,0,0,1,0,1.86v1.5c0,1,0,1.82,0,2.48q0,12.11-2.78,13a2.71,2.71,0,0,1-.74.11,5,5,0,0,1-1.22-.2l-1.31-.42-1.13-.28a3,3,0,0,1-1-.41,4.42,4.42,0,0,1-1.6-2.09,9.09,9.09,0,0,1-.58-2.35c0-.41-.08-.83-.11-1.24a1.84,1.84,0,0,1-.23-1.1,1.05,1.05,0,0,1,1-.83,5.62,5.62,0,0,1,1.77.18c.92.2,1.47.46,1.64.78a.75.75,0,0,1,.09.37,3.88,3.88,0,0,1-.07.42,1.36,1.36,0,0,0,0,.46,11,11,0,0,0,.32,2.23c.2.81.42,1.22.65,1.22q.69,0,.85-6.6,0-1.32,0-8.29a1.33,1.33,0,0,0-.09-.41,1.65,1.65,0,0,1-.09-.3.87.87,0,0,1,.33-.61,1.28,1.28,0,0,1,.68-.35,7.52,7.52,0,0,1,2,.16C118.46,952.07,119,952.3,119.09,952.58Z"/>
        <path class="cls-3" d="M131.81,957.64a.78.78,0,0,1,.16.46.9.9,0,0,1-.26.55c-.18.22-.27.35-.27.42v10.69a1.49,1.49,0,0,0,.15.48,1.47,1.47,0,0,1,.15.51c0,.28-.23.47-.71.6a4.66,4.66,0,0,1-1.72-.26c-1-.24-1.52-.49-1.62-.73a1.25,1.25,0,0,1,.07-.81,2.57,2.57,0,0,0,.23-.82,3.77,3.77,0,0,0-.06-.6,7.55,7.55,0,0,1-1,2c-.51.71-1,1.06-1.52,1.06a5.3,5.3,0,0,1-2-.53c-.83-.35-1.31-.67-1.43-1q-.64-1.47-.64-10.88a2.1,2.1,0,0,1-.19-.87,1,1,0,0,1,.53-1,1.57,1.57,0,0,1,.58-.07,8.77,8.77,0,0,1,1.86.24,2.88,2.88,0,0,1,1.31.5.44.44,0,0,1,.12.3,1.94,1.94,0,0,1-.35.81,1.9,1.9,0,0,0-.34.82q0,9.06.13,9.13c.22.08.76-.63,1.63-2.13a7.85,7.85,0,0,0,1.3-3.41v-4.3a1,1,0,0,1-.3-.74,1.21,1.21,0,0,1,.78-1.22.62.62,0,0,1,.27-.05,8.64,8.64,0,0,1,1.82.29A3.49,3.49,0,0,1,131.81,957.64Z"/>
        <path class="cls-3" d="M144.51,969.3a2.26,2.26,0,0,1,.18.87,1,1,0,0,1-.53,1,1.75,1.75,0,0,1-.57.07,8.77,8.77,0,0,1-1.86-.24,3.14,3.14,0,0,1-1.32-.48.48.48,0,0,1-.11-.3,1.88,1.88,0,0,1,.34-.81,2,2,0,0,0,.35-.82q0-9.06-.14-9.13t-1.59,2.07a8,8,0,0,0-1.33,3.47v4.3a1,1,0,0,1,.3.74,1.2,1.2,0,0,1-.78,1.2.69.69,0,0,1-.28,0,8.57,8.57,0,0,1-1.82-.28,3.41,3.41,0,0,1-1.33-.48.68.68,0,0,1-.14-.41.93.93,0,0,1,.27-.55c.17-.22.26-.35.26-.42V958.4a1,1,0,0,0-.18-.48.62.62,0,0,1-.12-.51.88.88,0,0,1,.71-.62,4.84,4.84,0,0,1,1.73.25c1,.25,1.52.5,1.61.76a1.25,1.25,0,0,1-.07.76,6,6,0,0,0-.25.92,1.91,1.91,0,0,0,.09.55,7,7,0,0,1,1-2c.5-.73,1-1.09,1.51-1.09a5.38,5.38,0,0,1,2,.54c.83.36,1.3.69,1.42,1Q144.51,959.89,144.51,969.3Z"/>
        <path class="cls-3" d="M155.92,966.75q.2.35-.9,2a7.39,7.39,0,0,1-2.35,2.47,1,1,0,0,1-.41.07,7,7,0,0,1-2.35-.56,4.35,4.35,0,0,1-2-1.19,7.66,7.66,0,0,1-1.33-4.79,10.72,10.72,0,0,1,1.17-5.1c.84-1.61,1.91-2.43,3.22-2.46a4.41,4.41,0,0,1,1.72.36,5.71,5.71,0,0,1,2.05,1.32,2.77,2.77,0,0,1,.39,1.24,10.72,10.72,0,0,1,.23,2.16,3.41,3.41,0,0,1-.51,2.16,17.63,17.63,0,0,1-4.83.85,8.33,8.33,0,0,0,.28,2.37c.22.83.44,1.25.67,1.27s.67-.24,1.1-.76a3.48,3.48,0,0,0,.72-1.13,10.94,10.94,0,0,1,.43-1.43,4,4,0,0,1,1.45.37A2.77,2.77,0,0,1,155.92,966.75Zm-4.1-7c-.26,0-.62.38-1.09,1.24a6.55,6.55,0,0,0-.82,2.46,3,3,0,0,0,1.66-.5c.24-.19.37-.95.37-2.3Q151.94,959.75,151.82,959.71Z"/>
        <path class="cls-3" d="M172.45,970.08a1.64,1.64,0,0,1-.34,1,1,1,0,0,1-.88.42,5.85,5.85,0,0,1-1.79-1c-.95-.63-1.43-1.07-1.45-1.32a1.52,1.52,0,0,1,.07-.42,1.58,1.58,0,0,0,.07-.41v-9.66c0-.35-.35-.6-1-.75s-1.2-.44-1.31-.76a1.46,1.46,0,0,1-.09-.49,2.14,2.14,0,0,1,.51-1.19,11.74,11.74,0,0,0,.82-1.22c.19-.6.37-1.2.56-1.8a1.38,1.38,0,0,1,1.35-1,3.79,3.79,0,0,1,2,.6,1.85,1.85,0,0,1,1.11,1.52v15.25a1.21,1.21,0,0,0,.21.58A1.2,1.2,0,0,1,172.45,970.08Z"/>
        <path class="cls-3" d="M192.6,963.78c0,.34-.33.63-1,.88s-1.4.23-2.23.39v5.38a1.31,1.31,0,0,0,.05.27.76.76,0,0,1,0,.33,1.26,1.26,0,0,1-.45.84,1,1,0,0,1-.77.31A5.63,5.63,0,0,1,185.1,970a1.17,1.17,0,0,1-.14-.8.46.46,0,0,1,.17-.28.49.49,0,0,0,.16-.3v-3c-1.28.41-2.23.71-2.88.9A14.39,14.39,0,0,1,180,967a3.19,3.19,0,0,1-1.72-.78,5.91,5.91,0,0,1-1.34-1.17.63.63,0,0,1-.11-.35,2.33,2.33,0,0,1,.5-1,9.73,9.73,0,0,0,.72-.79s1.22-1.91,3.56-5.66a64.21,64.21,0,0,1,3.71-5.63,2.3,2.3,0,0,1,1.12-.44,4.77,4.77,0,0,1,1.89,1c.9.64,1.39,1.11,1.45,1.42,0,.16-.11.49-.46,1v6.26l.83-.14a.81.81,0,0,1,.48.16,8.88,8.88,0,0,1,1.17,1.53A5.17,5.17,0,0,1,192.6,963.78Zm-7.27-1.91V958.7l-2.46,4Z"/>
        <path class="cls-3" d="M195.61,971.92a1,1,0,0,1-.71.37.66.66,0,0,1-.25,0,4.91,4.91,0,0,1-1.36-1,8.42,8.42,0,0,1-1.06-1.06.48.48,0,0,1-.07-.27,1.58,1.58,0,0,1,.28-.83,15.27,15.27,0,0,0,2.44-8.28,15,15,0,0,0-1-5.55,5.15,5.15,0,0,0-1.61-2.57.57.57,0,0,1-.34-.6,1,1,0,0,1,.45-.68c.28-.24.51-.32.67-.26q2.31.83,3.91,4.4a18.51,18.51,0,0,1,1.61,7.72C198.53,967,197.56,969.84,195.61,971.92Z"/>
      </g>
    </g>
  </g>
</svg>
