<svg width="72" height="18" viewBox="0 0 72 18" fill="none" xmlns="http://www.w3.org/2000/svg">
<path fill-rule="evenodd" clip-rule="evenodd" d="M70.6963 0H55.3569C54.6231 0 54 0.580286 54 1.29514V16.704C54 17.4197 54.4089 18 55.1426 18H70.482C71.2166 18 72 17.4197 72 16.704V1.29514C72 0.580286 71.4309 0 70.6963 0ZM60.8571 6.85714H63.2803V8.09229H63.3069C63.6763 7.42629 64.7674 6.75 66.1166 6.75C68.706 6.75 69.4286 8.12486 69.4286 10.6714V15.4286H66.8571V11.1403C66.8571 10.0003 66.402 9 65.3374 9C64.0449 9 63.4286 9.87514 63.4286 11.3117V15.4286H60.8571V6.85714ZM56.5714 15.4286H59.1429V6.85714H56.5714V15.4286ZM59.4643 3.85714C59.4643 4.74514 58.7451 5.46429 57.8571 5.46429C56.9691 5.46429 56.25 4.74514 56.25 3.85714C56.25 2.96914 56.9691 2.25 57.8571 2.25C58.7451 2.25 59.4643 2.96914 59.4643 3.85714Z" fill="#0A66C2"/>
<path d="M51.4286 15.4286H49.0286V14.4077H49.0029C48.4689 15.0266 47.5414 15.5357 45.9694 15.5357C43.8266 15.5357 41.9811 13.9234 41.9811 11.1523C41.9811 8.51229 43.8 6.75 46.05 6.75C47.4429 6.75 48.3077 7.24543 48.8314 7.878H48.8571V2.57143H51.4286V15.4286ZM46.6963 8.67857C45.2263 8.67857 44.4 9.72686 44.4 11.1206C44.4 12.5151 45.2263 13.6071 46.6963 13.6071C48.168 13.6071 49.0286 12.5434 49.0286 11.1206C49.0286 9.65829 48.168 8.67857 46.6963 8.67857Z" fill="#0A66C2"/>
<path d="M40.8524 14.0476C40.2455 14.8336 38.9958 15.5356 36.9781 15.5356C34.2858 15.5356 32.5715 13.7536 32.5715 10.9525C32.5715 8.4642 34.1247 6.74991 37.0535 6.74991C39.5829 6.74991 41.1429 8.41106 41.1429 11.3331C41.1429 11.6253 41.0958 11.9142 41.0958 11.9142H34.9981L35.0127 12.1791C35.1815 12.9179 35.7395 13.8213 37.0201 13.8213C38.1378 13.8213 38.9041 13.2205 39.2504 12.7499L40.8524 14.0476ZM38.6684 10.2856C38.6855 9.38134 38.0221 8.4642 36.9764 8.4642C35.7318 8.4642 35.0675 9.4362 34.9981 10.2856H38.6684Z" fill="#0A66C2"/>
<path d="M32.5714 6.85714H29.5714L26.5714 10.2857V2.57143H24V15.4286H26.5714V11.1429L29.742 15.4286H32.778L29.1429 10.7426L32.5714 6.85714Z" fill="#0A66C2"/>
<path d="M13.7143 6.85714H16.1374V8.09229H16.164C16.5334 7.42629 17.6246 6.75 18.9737 6.75C21.5631 6.75 22.2857 8.39314 22.2857 10.6714V15.4286H19.7143V11.1403C19.7143 9.87857 19.2591 9 18.1946 9C16.902 9 16.2857 10.0234 16.2857 11.3117V15.4286H13.7143V6.85714Z" fill="#0A66C2"/>
<path d="M9.42857 15.4286H12V6.85714H9.42857V15.4286ZM10.7151 5.4C11.5671 5.4 12.2571 4.70914 12.2571 3.85714C12.2571 3.00514 11.5671 2.31429 10.7151 2.31429C9.864 2.31429 9.17143 3.00514 9.17143 3.85714C9.17143 4.70914 9.864 5.4 10.7151 5.4Z" fill="#0A66C2"/>
<path d="M2.57143 2.57143H0V15.4286H7.71429V12.8571H2.57143V2.57143Z" fill="#0A66C2"/>
</svg>
