<svg width="300" height="160" viewBox="0 0 300 160" fill="none" xmlns="http://www.w3.org/2000/svg">
<path d="M17.8 88.8V82.4L52.2 62.48V69.12L23.8 85.2V85.84L52.2 101.92V108.72L17.8 88.8ZM99.9288 110H62.6488V103.12L81.2888 86.32C84.2754 83.6533 86.5688 81.04 88.1688 78.48C89.8221 75.8667 90.6488 73.2267 90.6488 70.56V69.6C90.6488 66.24 89.7421 63.6533 87.9288 61.84C86.1688 59.9733 83.5821 59.04 80.1688 59.04C76.9154 59.04 74.3288 59.8667 72.4088 61.52C70.5421 63.1733 69.1288 65.52 68.1688 68.56L62.1688 66.32C63.4488 62.5333 65.5288 59.4133 68.4088 56.96C71.3421 54.4533 75.3154 53.2 80.3288 53.2C85.7688 53.2 90.0088 54.6933 93.0488 57.68C96.1421 60.6133 97.6888 64.5067 97.6888 69.36C97.6888 73.3067 96.6221 76.9333 94.4888 80.24C92.4088 83.5467 89.3154 86.9867 85.2088 90.56L69.6088 104.16H99.9288V110ZM126.938 110.96C113.924 110.96 107.418 101.333 107.418 82.08C107.418 62.8267 113.924 53.2 126.938 53.2C139.951 53.2 146.458 62.8267 146.458 82.08C146.458 101.333 139.951 110.96 126.938 110.96ZM126.938 105.12C131.258 105.12 134.431 103.52 136.458 100.32C138.484 97.0667 139.498 92.5067 139.498 86.64V77.52C139.498 71.6533 138.484 67.12 136.458 63.92C134.431 60.6667 131.258 59.04 126.938 59.04C122.618 59.04 119.444 60.6667 117.418 63.92C115.391 67.12 114.378 71.6533 114.378 77.52V86.64C114.378 92.5067 115.391 97.0667 117.418 100.32C119.444 103.52 122.618 105.12 126.938 105.12ZM126.938 86.8C123.631 86.8 121.978 85.52 121.978 82.96V81.2C121.978 78.64 123.631 77.36 126.938 77.36C130.244 77.36 131.898 78.64 131.898 81.2V82.96C131.898 85.52 130.244 86.8 126.938 86.8ZM191.866 110H154.586V103.12L173.226 86.32C176.213 83.6533 178.506 81.04 180.106 78.48C181.76 75.8667 182.586 73.2267 182.586 70.56V69.6C182.586 66.24 181.68 63.6533 179.866 61.84C178.106 59.9733 175.52 59.04 172.106 59.04C168.853 59.04 166.266 59.8667 164.346 61.52C162.48 63.1733 161.066 65.52 160.106 68.56L154.106 66.32C155.386 62.5333 157.466 59.4133 160.346 56.96C163.28 54.4533 167.253 53.2 172.266 53.2C177.706 53.2 181.946 54.6933 184.986 57.68C188.08 60.6133 189.626 64.5067 189.626 69.36C189.626 73.3067 188.56 76.9333 186.426 80.24C184.346 83.5467 181.253 86.9867 177.146 90.56L161.546 104.16H191.866V110ZM201.675 110V104.16H217.675V59.12H217.115L203.035 72.24L199.115 68L213.915 54.16H224.395V104.16H239.115V110H201.675ZM247.644 102.08L276.044 86V85.36L247.644 69.28V62.48L282.044 82.4V88.8L247.644 108.72V102.08Z" fill="black"/>
</svg>
