<svg width="300" height="160" viewBox="0 0 300 160" fill="none" xmlns="http://www.w3.org/2000/svg">
<path d="M33.421 71.492H38.461L22.333 111.119C21.535 113.093 20.527 114.5 19.309 115.34C18.133 116.18 16.369 116.6 14.017 116.6H9.229V112.316H14.962C16.222 112.316 17.062 111.749 17.482 110.615L20.443 103.37L7.339 71.492H12.505L17.986 85.1L22.837 97.448H23.089L27.94 85.1L33.421 71.492ZM59.1004 104.756C56.0764 104.756 53.4514 104.063 51.2254 102.677C49.0414 101.291 47.3404 99.317 46.1224 96.755C44.9464 94.193 44.3584 91.19 44.3584 87.746C44.3584 84.302 44.9464 81.299 46.1224 78.737C47.3404 76.175 49.0414 74.201 51.2254 72.815C53.4514 71.429 56.0764 70.736 59.1004 70.736C62.1244 70.736 64.7284 71.429 66.9124 72.815C69.1384 74.201 70.8394 76.175 72.0154 78.737C73.2334 81.299 73.8424 84.302 73.8424 87.746C73.8424 91.19 73.2334 94.193 72.0154 96.755C70.8394 99.317 69.1384 101.291 66.9124 102.677C64.7284 104.063 62.1244 104.756 59.1004 104.756ZM59.1004 100.409C61.9984 100.409 64.2874 99.548 65.9674 97.826C67.6474 96.062 68.4874 93.479 68.4874 90.077V85.415C68.4874 82.013 67.6474 79.451 65.9674 77.729C64.2874 75.965 61.9984 75.083 59.1004 75.083C56.2024 75.083 53.9134 75.965 52.2334 77.729C50.5534 79.451 49.7134 82.013 49.7134 85.415V90.077C49.7134 93.479 50.5534 96.062 52.2334 97.826C53.9134 99.548 56.2024 100.409 59.1004 100.409ZM102.987 98.708H102.735C101.013 102.74 97.9258 104.756 93.4738 104.756C90.0298 104.756 87.2788 103.664 85.2208 101.48C83.2048 99.296 82.1968 96.251 82.1968 92.345V71.492H87.2368V91.463C87.2368 94.403 87.8878 96.608 89.1898 98.078C90.4918 99.548 92.4028 100.283 94.9228 100.283C97.1488 100.283 99.0388 99.758 100.593 98.708C102.189 97.616 102.987 96.062 102.987 94.046V71.492H108.027V104H102.987V98.708ZM116.444 104L128.54 87.494L116.759 71.492H122.807L127.721 78.359L131.627 83.777H131.879L135.659 78.359L140.51 71.492H146.306L134.399 87.431L146.621 104H140.573L131.375 91.211H131.123L122.24 104H116.444ZM176.837 57.38V64.058H170.159V57.38H176.837ZM176.018 71.492V105.701C176.018 108.641 175.472 110.909 174.38 112.505C173.33 114.101 171.797 115.172 169.781 115.718C167.807 116.306 165.161 116.6 161.843 116.6H155.228V112.316H161.906C164.3 112.316 166.085 112.19 167.261 111.938C168.479 111.728 169.403 111.14 170.033 110.174C170.663 109.25 170.978 107.78 170.978 105.764V75.776H154.661V71.492H176.018ZM203.902 104.756C200.878 104.756 198.253 104.063 196.027 102.677C193.843 101.291 192.142 99.317 190.924 96.755C189.748 94.193 189.16 91.19 189.16 87.746C189.16 84.302 189.748 81.299 190.924 78.737C192.142 76.175 193.843 74.201 196.027 72.815C198.253 71.429 200.878 70.736 203.902 70.736C206.926 70.736 209.53 71.429 211.714 72.815C213.94 74.201 215.641 76.175 216.817 78.737C218.035 81.299 218.644 84.302 218.644 87.746C218.644 91.19 218.035 94.193 216.817 96.755C215.641 99.317 213.94 101.291 211.714 102.677C209.53 104.063 206.926 104.756 203.902 104.756ZM203.902 100.409C206.8 100.409 209.089 99.548 210.769 97.826C212.449 96.062 213.289 93.479 213.289 90.077V85.415C213.289 82.013 212.449 79.451 210.769 77.729C209.089 75.965 206.8 75.083 203.902 75.083C201.004 75.083 198.715 75.965 197.035 77.729C195.355 79.451 194.515 82.013 194.515 85.415V90.077C194.515 93.479 195.355 96.062 197.035 97.826C198.715 99.548 201.004 100.409 203.902 100.409ZM227.187 57.38H232.227V76.784H232.479C234.579 72.752 237.918 70.736 242.496 70.736C246.486 70.736 249.594 72.248 251.82 75.272C254.088 78.254 255.222 82.412 255.222 87.746C255.222 93.08 254.088 97.259 251.82 100.283C249.594 103.265 246.486 104.756 242.496 104.756C237.918 104.756 234.579 102.74 232.479 98.708H232.227V104H227.187V57.38ZM240.543 100.283C243.441 100.283 245.709 99.401 247.347 97.637C248.985 95.873 249.804 93.5 249.804 90.518V84.974C249.804 81.992 248.985 79.619 247.347 77.855C245.709 76.091 243.441 75.209 240.543 75.209C238.191 75.209 236.217 75.797 234.621 76.973C233.025 78.149 232.227 79.787 232.227 81.887V93.605C232.227 95.705 233.025 97.343 234.621 98.519C236.217 99.695 238.191 100.283 240.543 100.283ZM276.681 104.756C270.381 104.756 265.362 102.635 261.624 98.393L265.026 95.432C266.622 97.154 268.365 98.435 270.255 99.275C272.145 100.115 274.329 100.535 276.807 100.535C279.453 100.535 281.553 100.073 283.107 99.149C284.661 98.183 285.438 96.776 285.438 94.928C285.438 93.374 284.934 92.261 283.926 91.589C282.918 90.917 281.511 90.455 279.705 90.203L274.602 89.447C272.544 89.153 270.738 88.754 269.184 88.25C267.63 87.704 266.286 86.822 265.152 85.604C264.018 84.344 263.451 82.622 263.451 80.438C263.451 77.288 264.648 74.894 267.042 73.256C269.436 71.576 272.607 70.736 276.555 70.736C282.099 70.736 286.509 72.479 289.785 75.965L286.509 79.052C284.241 76.322 280.86 74.957 276.366 74.957C273.804 74.957 271.83 75.398 270.444 76.28C269.1 77.162 268.428 78.443 268.428 80.123C268.428 81.677 268.932 82.79 269.94 83.462C270.99 84.134 272.397 84.596 274.161 84.848L279.264 85.604C281.364 85.898 283.191 86.318 284.745 86.864C286.299 87.368 287.622 88.25 288.714 89.51C289.848 90.728 290.415 92.429 290.415 94.613C290.415 97.805 289.176 100.304 286.698 102.11C284.22 103.874 280.881 104.756 276.681 104.756Z" fill="black"/>
</svg>
