<svg width="300" height="160" viewBox="0 0 300 160" fill="none" xmlns="http://www.w3.org/2000/svg">
<path d="M13.4 68.72H19.08L23.8 104.4H24.52L31.56 68.72H38.6L45.64 104.4H46.36L51.08 68.72H56.6L50.28 110H41.96L35.4 75.44H34.76L28.04 110H19.72L13.4 68.72ZM59.3688 68.72H65.0488L69.7688 104.4H70.4888L77.5287 68.72H84.5688L91.6088 104.4H92.3288L97.0488 68.72H102.569L96.2488 110H87.9288L81.3688 75.44H80.7288L74.0088 110H65.6888L59.3688 68.72ZM105.338 68.72H111.018L115.738 104.4H116.458L123.497 68.72H130.538L137.578 104.4H138.298L143.018 68.72H148.538L142.218 110H133.898L127.338 75.44H126.698L119.978 110H111.658L105.338 68.72ZM178.026 99.52V110H167.626V99.52H178.026ZM199.835 80.24V74.8H237.915V80.24H199.835ZM199.835 96.24V90.8H237.915V96.24H199.835ZM257.244 85.12C257.244 80.1067 257.99 75.28 259.484 70.64C260.977 66 262.977 61.84 265.484 58.16C267.99 54.48 270.79 51.4933 273.884 49.2H280.364C275.404 52.9333 271.297 57.6533 268.044 63.36C264.844 69.0667 263.244 75.1733 263.244 81.68V88.56C263.244 95.0667 264.844 101.173 268.044 106.88C271.297 112.587 275.404 117.307 280.364 121.04H273.884C270.79 118.747 267.99 115.76 265.484 112.08C262.977 108.4 260.977 104.24 259.484 99.6C257.99 94.96 257.244 90.1333 257.244 85.12Z" fill="black"/>
</svg>
